<svg width="20" height="22" viewBox="0 0 20 22" fill="none" xmlns="http://www.w3.org/2000/svg">
<path fill-rule="evenodd" clip-rule="evenodd" d="M14.0136 20.4999H5.66579C2.59943 20.4999 0.24703 19.3924 0.915222 14.9347L1.69325 8.89351C2.10515 6.66925 3.52392 5.81799 4.76877 5.81799H14.9473C16.2104 5.81799 17.5468 6.73332 18.0228 8.89351L18.8008 14.9347C19.3683 18.8889 17.08 20.4999 14.0136 20.4999Z" stroke="#CACACA" stroke-width="1.5" stroke-linecap="round" stroke-linejoin="round"/>
<path opacity="0.4" d="M14.151 5.59836C14.151 3.21229 12.2167 1.27799 9.83062 1.27799V1.27799C8.68162 1.27312 7.578 1.72615 6.76381 2.53691C5.94963 3.34766 5.49193 4.44935 5.49194 5.59836H5.49194" stroke="#CACACA" stroke-width="1.5" stroke-linecap="round" stroke-linejoin="round"/>
<path d="M12.7962 10.1018H12.7505" stroke="#CACACA" stroke-width="1.5" stroke-linecap="round" stroke-linejoin="round"/>
<path d="M6.96566 10.1018H6.91989" stroke="#CACACA" stroke-width="1.5" stroke-linecap="round" stroke-linejoin="round"/>
</svg>
